<mxfile host="app.diagrams.net" modified="2023-10-31T10:05:01.449Z" agent="Mozilla/5.0 (Windows NT 10.0; Win64; x64) AppleWebKit/537.36 (KHTML, like Gecko) Chrome/118.0.0.0 Safari/537.36" etag="m3kB70mhPI7OOyWXrXaX" version="22.0.8" type="github">
  <diagram name="第 1 页" id="7Gb_Cx17CM2qssEO5Z0E">
    <mxGraphModel dx="1434" dy="780" grid="1" gridSize="10" guides="1" tooltips="1" connect="1" arrows="1" fold="1" page="1" pageScale="1" pageWidth="827" pageHeight="1169" math="0" shadow="0">
      <root>
        <mxCell id="0" />
        <mxCell id="1" parent="0" />
        <mxCell id="pJftvf1LW6_St-jP0T7b-3" value="tb_feed_column_label_rel" style="rounded=1;whiteSpace=wrap;html=1;" vertex="1" parent="1">
          <mxGeometry x="360" y="100" width="160" height="60" as="geometry" />
        </mxCell>
        <mxCell id="pJftvf1LW6_St-jP0T7b-20" style="edgeStyle=orthogonalEdgeStyle;rounded=0;orthogonalLoop=1;jettySize=auto;html=1;entryX=1;entryY=0.5;entryDx=0;entryDy=0;" edge="1" parent="1" source="pJftvf1LW6_St-jP0T7b-4" target="pJftvf1LW6_St-jP0T7b-6">
          <mxGeometry relative="1" as="geometry" />
        </mxCell>
        <mxCell id="pJftvf1LW6_St-jP0T7b-4" value="tb_content_relate_label" style="rounded=1;whiteSpace=wrap;html=1;" vertex="1" parent="1">
          <mxGeometry x="610" y="220" width="150" height="60" as="geometry" />
        </mxCell>
        <mxCell id="pJftvf1LW6_St-jP0T7b-19" style="edgeStyle=orthogonalEdgeStyle;rounded=0;orthogonalLoop=1;jettySize=auto;html=1;entryX=0;entryY=0.5;entryDx=0;entryDy=0;" edge="1" parent="1" source="pJftvf1LW6_St-jP0T7b-5" target="pJftvf1LW6_St-jP0T7b-6">
          <mxGeometry relative="1" as="geometry" />
        </mxCell>
        <mxCell id="pJftvf1LW6_St-jP0T7b-5" value="tb_feed_column_content_rel" style="rounded=1;whiteSpace=wrap;html=1;" vertex="1" parent="1">
          <mxGeometry x="130" y="220" width="210" height="60" as="geometry" />
        </mxCell>
        <mxCell id="pJftvf1LW6_St-jP0T7b-6" value="tb_content_image_text" style="rounded=1;whiteSpace=wrap;html=1;" vertex="1" parent="1">
          <mxGeometry x="390" y="210" width="170" height="80" as="geometry" />
        </mxCell>
        <mxCell id="pJftvf1LW6_St-jP0T7b-11" style="edgeStyle=orthogonalEdgeStyle;rounded=0;orthogonalLoop=1;jettySize=auto;html=1;entryX=0;entryY=0.5;entryDx=0;entryDy=0;" edge="1" parent="1" source="pJftvf1LW6_St-jP0T7b-10" target="pJftvf1LW6_St-jP0T7b-3">
          <mxGeometry relative="1" as="geometry" />
        </mxCell>
        <mxCell id="pJftvf1LW6_St-jP0T7b-23" style="edgeStyle=orthogonalEdgeStyle;rounded=0;orthogonalLoop=1;jettySize=auto;html=1;entryX=0.5;entryY=0;entryDx=0;entryDy=0;" edge="1" parent="1" source="pJftvf1LW6_St-jP0T7b-10" target="pJftvf1LW6_St-jP0T7b-5">
          <mxGeometry relative="1" as="geometry" />
        </mxCell>
        <mxCell id="pJftvf1LW6_St-jP0T7b-10" value="tb_feed_column" style="rounded=1;whiteSpace=wrap;html=1;" vertex="1" parent="1">
          <mxGeometry x="130" y="100" width="120" height="60" as="geometry" />
        </mxCell>
        <mxCell id="pJftvf1LW6_St-jP0T7b-17" style="edgeStyle=orthogonalEdgeStyle;rounded=0;orthogonalLoop=1;jettySize=auto;html=1;entryX=0.5;entryY=0;entryDx=0;entryDy=0;" edge="1" parent="1" source="pJftvf1LW6_St-jP0T7b-12" target="pJftvf1LW6_St-jP0T7b-4">
          <mxGeometry relative="1" as="geometry" />
        </mxCell>
        <mxCell id="pJftvf1LW6_St-jP0T7b-22" style="edgeStyle=orthogonalEdgeStyle;rounded=0;orthogonalLoop=1;jettySize=auto;html=1;entryX=1;entryY=0.5;entryDx=0;entryDy=0;" edge="1" parent="1" source="pJftvf1LW6_St-jP0T7b-12" target="pJftvf1LW6_St-jP0T7b-3">
          <mxGeometry relative="1" as="geometry" />
        </mxCell>
        <mxCell id="pJftvf1LW6_St-jP0T7b-12" value="tb_lable" style="rounded=1;whiteSpace=wrap;html=1;" vertex="1" parent="1">
          <mxGeometry x="625" y="100" width="120" height="60" as="geometry" />
        </mxCell>
      </root>
    </mxGraphModel>
  </diagram>
</mxfile>
